<svg width="91" height="91" viewBox="0 0 91 91" fill="none" xmlns="http://www.w3.org/2000/svg">
<circle cx="45.2915" cy="45.4541" r="44.7314" fill="#FFBB50"/>
<g clip-path="url(#clip0_90_1131)">
<path fill-rule="evenodd" clip-rule="evenodd" d="M39.8734 30.2227C40.9784 30.2227 42.0382 30.6616 42.8196 31.443C43.6011 32.2244 44.04 33.2843 44.04 34.3893V36.8893H47.3734V34.3893C47.3732 33.3315 47.7754 32.3131 48.4984 31.5409C49.2214 30.7687 50.2111 30.3004 51.2667 30.231L51.6384 30.2227C52.6874 30.223 53.7098 30.5533 54.5608 31.1667C55.4117 31.7802 56.0482 32.6458 56.38 33.641L61.7167 49.6493C62.1742 50.6694 62.3978 51.7788 62.3713 52.8964C62.3447 54.014 62.0687 55.1116 61.5633 56.1088C61.0579 57.1059 60.336 57.9775 59.4504 58.6598C58.5648 59.342 57.5378 59.8176 56.4447 60.0519C55.3516 60.2861 54.2199 60.273 53.1325 60.0135C52.0451 59.754 51.0295 59.2547 50.1599 58.5521C49.2903 57.8496 48.5888 56.9615 48.1067 55.9529C47.6246 54.9442 47.374 53.8406 47.3734 52.7227V40.2227H44.04V52.7227C44.0394 53.8406 43.7888 54.9442 43.3067 55.9529C42.8246 56.9615 42.1231 57.8496 41.2535 58.5521C40.3839 59.2547 39.3683 59.754 38.2809 60.0135C37.1935 60.273 36.0618 60.2861 34.9687 60.0519C33.8756 59.8176 32.8486 59.342 31.963 58.6598C31.0774 57.9775 30.3555 57.1059 29.8501 56.1088C29.3448 55.1116 29.0687 54.014 29.0422 52.8964C29.0156 51.7788 29.2392 50.6694 29.6967 49.6493L35.0317 33.641C35.3473 32.6951 35.9385 31.8651 36.7294 31.2578C37.5203 30.6504 38.4747 30.2934 39.47 30.2327L39.8734 30.2227ZM36.54 48.556C34.2817 48.556 32.3734 50.471 32.3734 52.7227C32.3734 53.5467 32.6177 54.3523 33.0756 55.0375C33.5334 55.7227 34.1842 56.2568 34.9455 56.5722C35.7069 56.8875 36.5447 56.97 37.3529 56.8093C38.1612 56.6485 38.9036 56.2517 39.4863 55.6689C40.069 55.0862 40.4659 54.3438 40.6266 53.5355C40.7874 52.7273 40.7049 51.8895 40.3895 51.1281C40.0742 50.3668 39.5401 49.716 38.8549 49.2582C38.1697 48.8004 37.3641 48.556 36.54 48.556ZM54.8734 48.556C54.0493 48.556 53.2437 48.8004 52.5585 49.2582C51.8733 49.716 51.3392 50.3668 51.0239 51.1281C50.7085 51.8895 50.626 52.7273 50.7868 53.5355C50.9475 54.3438 51.3444 55.0862 51.9271 55.6689C52.5098 56.2517 53.2522 56.6485 54.0605 56.8093C54.8687 56.97 55.7065 56.8875 56.4679 56.5722C57.2292 56.2568 57.88 55.7227 58.3378 55.0375C58.7957 54.3523 59.04 53.5467 59.04 52.7227C59.04 50.471 57.1317 48.556 54.8734 48.556Z" fill="white"/>
</g>
<defs>
<clipPath id="clip0_90_1131">
<rect width="40" height="40" fill="white" transform="translate(25.7065 25.2227)"/>
</clipPath>
</defs>
</svg>
