<svg width="218" height="56" viewBox="0 0 218 56" fill="none" xmlns="http://www.w3.org/2000/svg">
<path d="M21.7399 0.798828H16.4934L4.82456 10.9578V0.798828H1V23.6779H4.82456V15.6483L9.4272 11.7822L18.03 23.6779H22.6863L12.2322 9.17725L21.7399 0.798828Z" fill="black" stroke="black" stroke-width="0.243913" stroke-miterlimit="10"/>
<path d="M44.9631 9.41339H33.2918V0.839844H29.4282V23.6799H33.2918V13.0404H44.9631V23.6799H48.8047V0.839844H44.9631V9.41339Z" fill="black" stroke="black" stroke-width="0.243913" stroke-miterlimit="10"/>
<path d="M62.8978 13.3355H71.5909V9.70853H62.8978V4.46683H77.2716V0.839844H59.0757V23.6799H78.157V20.0504H62.8978V13.3355Z" fill="black" stroke="black" stroke-width="0.243913" stroke-miterlimit="10"/>
<path d="M89.6648 23.6799H93.5089V4.46683H102.653V0.839844H80.5425V4.46683H89.6648V23.6799Z" fill="black" stroke="black" stroke-width="0.243913" stroke-miterlimit="10"/>
<path d="M115.844 0.839844H112.902L101.712 23.6774H105.858L108.729 17.8382H120.025L122.974 23.6774H127.162L115.844 0.839844ZM110.524 14.1721L114.366 6.39131L118.269 14.1721H110.524Z" fill="black" stroke="black" stroke-width="0.243913" stroke-miterlimit="10"/>
<path d="M133.821 0.839844V23.6799H151.819V20.0504H137.643V0.839844H133.821Z" fill="black" stroke="black" stroke-width="0.243913" stroke-miterlimit="10"/>
<path d="M162.69 0.722656H158.826V23.6773H162.69V0.722656Z" fill="black" stroke="black" stroke-width="0.243913" stroke-miterlimit="10"/>
<path d="M186.84 0.839844L179.362 9.13533L171.847 0.839844H166.944L177.423 12.4574V23.6799H181.247V12.4965L191.784 0.839844H186.84Z" fill="black" stroke="black" stroke-width="0.243913" stroke-miterlimit="10"/>
<path d="M205.685 0.839844H202.741L191.55 23.6774H195.697L198.567 17.8382H209.863L212.812 23.6774H217L205.685 0.839844ZM200.365 14.1721L204.214 6.39131L208.097 14.1721H200.365Z" fill="black" stroke="black" stroke-width="0.243913" stroke-miterlimit="10"/>
<path d="M68.6908 42.5154C69.5153 42.5051 70.3279 42.712 71.047 43.1155C71.7238 43.4966 72.2754 44.066 72.6349 44.7546L72.9349 45.3278L75.2838 43.6521L74.996 43.2008C74.3337 42.15 73.409 41.29 72.3129 40.7056C71.1952 40.1201 69.9501 39.8202 68.6884 39.8324C66.5566 39.8324 64.7638 40.5641 63.3589 41.9691C61.9539 43.374 61.2466 45.2034 61.2466 47.3693C61.2466 49.5353 61.9539 51.3427 63.354 52.7598C64.7541 54.1769 66.5493 54.8965 68.6884 54.8965C70.0142 54.9158 71.3216 54.5852 72.4788 53.9379C73.6145 53.2777 74.5534 52.3262 75.1984 51.1817L75.274 51.05V46.3473H68.8713V49.0084H72.4959V50.228C72.0835 50.8309 71.5387 51.3315 70.9031 51.6915C70.2233 52.0551 69.4616 52.2382 68.6908 52.2232C68.076 52.2411 67.4644 52.1296 66.8954 51.896C66.3265 51.6623 65.813 51.3118 65.3882 50.867C64.5175 49.9621 64.076 48.7889 64.076 47.3791C64.0333 46.0869 64.5052 44.8306 65.3882 43.8862C65.8117 43.4388 66.3247 43.0856 66.8936 42.8494C67.4626 42.6132 68.075 42.4994 68.6908 42.5154Z" fill="black" stroke="black" stroke-width="0.243913" stroke-miterlimit="10"/>
<path d="M94.8285 47.2229C95.4914 46.4317 95.8465 45.4279 95.8285 44.3959C95.8285 43.0764 95.3919 42.0202 94.5309 41.2568C93.6699 40.4933 92.5333 40.1348 91.0966 40.1348H82.9011V54.5598H85.6817V48.7303H89.9502L93.2748 54.5476H96.4042L92.965 48.501C93.6912 48.2532 94.3357 47.8111 94.8285 47.2229ZM90.9893 46.0472H85.689V42.7812H91.0722C91.704 42.7812 92.1845 42.9276 92.5064 43.2178C92.668 43.3748 92.7928 43.5655 92.8721 43.7763C92.9513 43.9872 92.9831 44.2129 92.965 44.4374C92.965 44.9911 92.8235 45.3716 92.5162 45.635C92.2089 45.8984 91.682 46.0472 90.9893 46.0472Z" fill="black" stroke="black" stroke-width="0.243913" stroke-miterlimit="10"/>
<path d="M109.517 39.832C107.388 39.832 105.595 40.5638 104.19 41.9687C102.785 43.3737 102.075 45.203 102.075 47.369C102.075 49.5349 102.785 51.3423 104.185 52.7594C105.585 54.1766 107.38 54.8961 109.517 54.8961C111.654 54.8961 113.466 54.1766 114.883 52.7594C116.3 51.3423 117.005 49.53 117.005 47.369C117.005 45.2079 116.29 43.3956 114.878 41.9736C113.466 40.5516 111.656 39.832 109.517 39.832ZM112.82 50.8569C111.94 51.7256 110.753 52.2127 109.517 52.2127C108.281 52.2127 107.094 51.7256 106.214 50.8569C105.369 49.8905 104.904 48.6503 104.904 47.3665C104.904 46.0827 105.369 44.8426 106.214 43.8761C107.094 43.0055 108.281 42.5171 109.518 42.5171C110.756 42.5171 111.943 43.0055 112.822 43.8761C113.69 44.781 114.129 45.9591 114.129 47.3738C114.151 48.012 114.046 48.6482 113.822 49.2459C113.597 49.8437 113.256 50.3911 112.82 50.8569Z" fill="black" stroke="black" stroke-width="0.243913" stroke-miterlimit="10"/>
<path d="M133.147 49.2952C133.147 50.8001 132.828 51.4075 132.559 51.6538C132.291 51.9002 131.584 52.2099 129.896 52.2099C128.208 52.2099 127.503 51.905 127.213 51.6514C126.922 51.3977 126.622 50.8001 126.622 49.2952V40.1191H123.842V49.7391C123.842 51.544 124.33 52.8758 125.322 53.6954C126.315 54.5149 127.81 54.893 129.888 54.893C131.967 54.893 133.501 54.4905 134.452 53.6954C135.403 52.9002 135.933 51.544 135.933 49.7391V40.1191H133.147V49.2952Z" fill="black" stroke="black" stroke-width="0.243913" stroke-miterlimit="10"/>
<path d="M155.443 41.2231C154.597 40.4914 153.446 40.123 152.028 40.123H143.831V54.5481H146.611V48.7283H152.238C153.582 48.7283 154.677 48.3112 155.507 47.4917C155.922 47.0704 156.246 46.5689 156.46 46.0177C156.674 45.4665 156.773 44.8775 156.751 44.2866C156.751 43.0037 156.319 41.9719 155.443 41.2231ZM153.441 45.6306C153.119 45.9062 152.604 46.0477 151.911 46.0477H146.611V42.7793H151.997C152.626 42.7793 153.109 42.9256 153.429 43.2159C153.591 43.3725 153.716 43.5632 153.795 43.7741C153.874 43.985 153.906 44.2109 153.887 44.4354C153.88 44.9842 153.746 45.3696 153.441 45.6282V45.6306Z" fill="black" stroke="black" stroke-width="0.243913" stroke-miterlimit="10"/>
<path d="M109 35.3312C108.397 35.3312 107.808 35.1526 107.307 34.8178C106.806 34.4831 106.416 34.0073 106.185 33.4506C105.955 32.8939 105.894 32.2814 106.012 31.6904C106.129 31.0995 106.42 30.5566 106.846 30.1306C107.272 29.7045 107.815 29.4144 108.405 29.2968C108.996 29.1793 109.609 29.2396 110.166 29.4702C110.722 29.7008 111.198 30.0912 111.533 30.5922C111.868 31.0932 112.046 31.6822 112.046 32.2848C112.045 33.0923 111.724 33.8665 111.153 34.4375C110.582 35.0086 109.807 35.33 109 35.3312ZM109 30.8725C108.72 30.872 108.446 30.9546 108.213 31.1099C107.98 31.2652 107.798 31.4861 107.691 31.7447C107.583 32.0033 107.555 32.2879 107.61 32.5626C107.664 32.8372 107.799 33.0895 107.997 33.2875C108.195 33.4855 108.447 33.6203 108.722 33.6748C108.997 33.7293 109.281 33.7011 109.54 33.5937C109.799 33.4864 110.019 33.3047 110.175 33.0716C110.33 32.8386 110.413 32.5648 110.412 32.2848C110.411 31.9104 110.262 31.5516 109.998 31.2869C109.733 31.0222 109.374 30.8731 109 30.8725Z" fill="black" stroke="black" stroke-width="0.243913" stroke-miterlimit="10"/>
<path d="M204.121 31.4727H115.864V33.1044H204.121V31.4727Z" fill="black" stroke="black" stroke-width="0.243913" stroke-miterlimit="10"/>
<path d="M102.134 31.4727H13.8789V33.1044H102.134V31.4727Z" fill="black" stroke="black" stroke-width="0.243913" stroke-miterlimit="10"/>
</svg>
