<svg width="770" height="591" viewBox="0 0 770 591" fill="none" xmlns="http://www.w3.org/2000/svg">
<path d="M74.7302 398.01H56.0802L14.5902 434.13V398.01H0.990234V479.35H14.5902V450.8L30.9502 437.06L61.5402 479.35H78.1002L40.9302 427.79L74.7302 398.01Z" fill="#231F20" stroke="url(#paint0_radial_257_850)" stroke-miterlimit="10"/>
<path d="M157.3 428.63H115.81V398.15H102.07V479.35H115.81V441.52H157.3V479.35H170.97V398.15H157.3V428.63Z" fill="#231F20" stroke="url(#paint1_radial_257_850)" stroke-miterlimit="10"/>
<path d="M221.08 442.57H251.98V429.68H221.08V411.04H272.19V398.15H207.48V479.35H275.33V466.45H221.08V442.57Z" fill="#231F20" stroke="url(#paint2_radial_257_850)" stroke-miterlimit="10"/>
<path d="M316.25 479.35H329.92V411.04H362.43V398.15H283.81V411.04H316.25V479.35Z" fill="#231F20" stroke="url(#paint3_radial_257_850)" stroke-miterlimit="10"/>
<path d="M409.33 398.15H398.87L359.07 479.35H373.82L384 458.58H424.16L434.65 479.35H449.54L409.33 398.15ZM390.42 445.55L404.11 417.88L417.92 445.55H390.42Z" fill="#231F20" stroke="url(#paint4_radial_257_850)" stroke-miterlimit="10"/>
<path d="M473.25 398.15V479.35H537.25V466.45H486.85V398.15H473.25Z" fill="#231F20" stroke="url(#paint5_radial_257_850)" stroke-miterlimit="10"/>
<path d="M575.91 397.73H562.17V479.35H575.91V397.73Z" fill="#231F20" stroke="url(#paint6_radial_257_850)" stroke-miterlimit="10"/>
<path d="M661.77 398.15L635.19 427.64L608.47 398.15H591.03L628.29 439.45V479.35H641.88V439.59L679.36 398.15H661.77Z" fill="#231F20" stroke="url(#paint7_radial_257_850)" stroke-miterlimit="10"/>
<path d="M728.78 398.15H718.31L678.52 479.35H693.27L703.47 458.58H743.63L754.12 479.35H769L728.78 398.15ZM709.86 445.55L723.55 417.88L737.36 445.55H709.86Z" fill="#231F20" stroke="url(#paint8_radial_257_850)" stroke-miterlimit="10"/>
<path d="M241.67 546.329C244.602 546.288 247.493 547.023 250.05 548.459C252.455 549.815 254.414 551.841 255.69 554.289L256.77 556.289L265.11 550.289L264.11 548.679C261.763 544.94 258.477 541.882 254.58 539.809C250.606 537.726 246.177 536.661 241.69 536.709C238.182 536.612 234.691 537.235 231.433 538.541C228.175 539.846 225.22 541.806 222.75 544.299C217.75 549.299 215.23 555.799 215.23 563.509C215.23 571.219 217.75 577.639 222.73 582.669C225.206 585.172 228.17 587.138 231.439 588.446C234.708 589.753 238.211 590.374 241.73 590.269C246.445 590.336 251.094 589.16 255.21 586.859C259.249 584.512 262.587 581.129 264.88 577.059L265.15 576.589V559.909H242.32V569.359H255.21V573.669C253.742 575.826 251.803 577.621 249.54 578.919C247.12 580.208 244.411 580.858 241.67 580.809C239.486 580.872 237.312 580.476 235.29 579.648C233.268 578.819 231.442 577.576 229.93 575.999C226.926 572.565 225.27 568.157 225.27 563.594C225.27 559.031 226.926 554.623 229.93 551.189C231.436 549.6 233.26 548.346 235.282 547.509C237.305 546.671 239.482 546.269 241.67 546.329Z" fill="#231F20" stroke="url(#paint9_radial_257_850)" stroke-miterlimit="10"/>
<path d="M334.61 563.06C336.971 560.246 338.235 556.673 338.17 553C338.17 548.31 336.62 544.55 333.55 541.84C330.48 539.13 326.45 537.84 321.34 537.84H292.23V589.14H302.11V568.42H317.27L329.09 589.11H340.21L328 567.61C330.578 566.727 332.865 565.153 334.61 563.06ZM321 558.88H302.11V547.27H321.26C323.09 547.138 324.904 547.69 326.35 548.82C326.924 549.375 327.367 550.05 327.649 550.797C327.931 551.544 328.044 552.344 327.98 553.14C328.054 553.924 327.95 554.715 327.674 555.452C327.399 556.19 326.96 556.856 326.39 557.4C325.25 558.38 323.42 558.88 321 558.88Z" fill="#231F20" stroke="url(#paint10_radial_257_850)" stroke-miterlimit="10"/>
<path d="M386.84 536.789C383.332 536.692 379.841 537.315 376.583 538.621C373.325 539.926 370.37 541.886 367.9 544.379C362.9 549.379 360.38 555.879 360.38 563.589C360.38 571.299 362.9 577.719 367.88 582.749C370.356 585.252 373.32 587.218 376.589 588.526C379.858 589.833 383.361 590.454 386.88 590.349C394.51 590.349 400.88 587.789 405.88 582.749C410.88 577.709 413.42 571.269 413.42 563.589C413.42 555.909 410.88 549.449 405.86 544.399C403.375 541.902 400.406 539.939 397.136 538.63C393.865 537.322 390.361 536.695 386.84 536.789ZM398.58 575.999C395.453 579.087 391.235 580.818 386.84 580.818C382.445 580.818 378.227 579.087 375.1 575.999C372.095 572.563 370.438 568.154 370.438 563.589C370.438 559.025 372.095 554.615 375.1 551.179C378.229 548.088 382.451 546.354 386.85 546.354C391.249 546.354 395.47 548.088 398.6 551.179C401.605 554.621 403.261 559.035 403.261 563.604C403.261 568.173 401.605 572.588 398.6 576.029L398.58 575.999Z" fill="#231F20" stroke="url(#paint11_radial_257_850)" stroke-miterlimit="10"/>
<path d="M470.84 570.441C470.84 575.801 469.71 577.961 468.76 578.831C467.81 579.701 465.32 580.831 459.28 580.831C453.24 580.831 450.77 579.751 449.77 578.831C448.77 577.911 447.67 575.831 447.67 570.451V537.811H437.78V572.001C437.78 578.421 439.56 583.161 443.05 586.071C446.54 588.981 451.89 590.331 459.28 590.331C466.67 590.331 472.13 588.891 475.51 586.071C478.89 583.251 480.77 578.421 480.77 572.001V537.811H470.84V570.441Z" fill="#231F20" stroke="url(#paint12_radial_257_850)" stroke-miterlimit="10"/>
<path d="M550.13 541.731C547.13 539.131 543.04 537.811 537.97 537.811H508.85V589.111H518.73V568.421H538.73C540.868 568.506 543.001 568.158 545.001 567.399C547.002 566.639 548.828 565.483 550.37 564.001C551.843 562.5 552.994 560.716 553.754 558.756C554.514 556.796 554.867 554.701 554.79 552.601C554.872 550.556 554.497 548.519 553.69 546.638C552.884 544.757 551.668 543.081 550.13 541.731ZM543 557.401C541.86 558.401 540 558.881 537.57 558.881H518.73V547.271H537.88C539.711 547.136 541.525 547.689 542.97 548.821C543.546 549.374 543.992 550.049 544.276 550.796C544.559 551.543 544.673 552.344 544.61 553.141C544.682 553.926 544.574 554.718 544.295 555.456C544.016 556.194 543.573 556.859 543 557.401Z" fill="#231F20" stroke="url(#paint13_radial_257_850)" stroke-miterlimit="10"/>
<path d="M385 520.779C382.856 520.779 380.76 520.143 378.978 518.95C377.196 517.758 375.808 516.064 374.989 514.082C374.171 512.1 373.96 509.92 374.382 507.818C374.804 505.716 375.84 503.786 377.36 502.274C378.879 500.761 380.814 499.733 382.918 499.321C385.022 498.909 387.201 499.131 389.179 499.958C391.157 500.785 392.845 502.181 394.029 503.969C395.213 505.756 395.84 507.855 395.83 509.999C395.814 512.862 394.666 515.602 392.637 517.622C390.608 519.642 387.863 520.777 385 520.779ZM385 504.929C384.011 504.929 383.044 505.222 382.222 505.772C381.4 506.321 380.759 507.102 380.38 508.016C380.002 508.929 379.903 509.935 380.096 510.905C380.289 511.875 380.765 512.765 381.464 513.465C382.164 514.164 383.054 514.64 384.024 514.833C384.994 515.026 386 514.927 386.913 514.549C387.827 514.17 388.608 513.529 389.157 512.707C389.707 511.885 390 510.918 390 509.929C390 508.603 389.473 507.331 388.535 506.394C387.598 505.456 386.326 504.929 385 504.929Z" fill="#231F20" stroke="url(#paint14_radial_257_850)" stroke-miterlimit="10"/>
<path d="M723.22 507.051H409.41V512.861H723.22V507.051Z" fill="#231F20" stroke="url(#paint15_radial_257_850)" stroke-miterlimit="10"/>
<path d="M360.59 507.051H46.7798V512.861H360.59V507.051Z" fill="#231F20" stroke="url(#paint16_radial_257_850)" stroke-miterlimit="10"/>
<path d="M504.18 109.7L529.18 130.45L555.33 1.65039L513.33 21.3304L463.33 44.7304C461.72 43.8404 460.09 43.0004 458.47 42.2004L456.31 41.2004L454.23 40.2004C444.713 35.8291 434.797 32.3832 424.62 29.9104L423.93 29.7104C421.48 29.1304 419.2 28.6304 416.93 28.2004L414.72 27.7904H414.46C414.261 27.7329 414.056 27.6927 413.85 27.6704L410.85 27.1904C410.14 27.0804 409.43 26.9604 408.69 26.8604L408.38 26.8104L407.66 26.7104C405.57 26.4204 403.46 26.1804 401.24 25.9704L398.69 25.7404H398.48C396.8 25.5904 395.07 25.4904 393.2 25.4004L390.98 25.3004C389.11 25.2304 387.12 25.1804 384.91 25.1804C382.7 25.1804 380.72 25.1804 378.82 25.3004L376.67 25.4004C374.9 25.4704 373.1 25.6004 371.36 25.7404C370.42 25.8104 369.52 25.8804 368.59 25.9804C366.35 26.1904 364.2 26.4304 362.29 26.7104L361.43 26.8204L361.1 26.8704C360.39 26.9704 359.68 27.0904 358.98 27.2004L355.98 27.6804L352.98 28.2504C350.69 28.6804 348.37 29.1904 346.05 29.7404L343.77 30.2804V32.6104C343.77 37.2604 343.77 41.7404 343.77 46.1104C343.77 46.1104 343.71 61.8204 343.71 62.9504V111.41V130.7C343.71 147.794 343.71 161.65 343.71 172.27V176.74C343.71 181.5 343.77 185.46 343.8 188.57V188.78L315.74 217.4V40.1004L311.48 42.2204C310.48 42.7104 309.48 43.2204 308.48 43.7304C306.76 44.6004 304.98 45.5704 302.99 46.7304L300.15 48.3904C299.96 48.5004 299.77 48.6004 299.74 48.6304C299.12 49.0004 298.49 49.3604 297.91 49.7404L295.05 51.5204L294.99 51.5804C294.3 52.0104 293.6 52.4804 292.86 52.9704L292.53 53.1904C291.8 53.6704 291.1 54.1904 290.35 54.6704L290.02 54.9004H289.94L287 57.0004C286.2 57.5804 285.4 58.1604 284.59 58.7904L284.33 59.0004C283.92 59.2904 283.53 59.5804 283.21 59.8504C282.51 60.3704 281.85 60.8504 281.21 61.4004C280.57 61.9504 279.83 62.4704 279.27 62.9704L279.02 63.1404C247.517 88.8144 226.559 125.181 220.14 165.31C220.01 165.94 219.92 166.56 219.85 167.14L219.75 167.84C219.75 168.16 219.65 168.48 219.57 168.9L219.42 170.14C219.3 170.94 219.2 171.74 219.12 172.51C218.99 173.51 218.88 174.51 218.81 175.51C218.66 176.87 218.54 178.24 218.41 179.73L218.34 180.88C218.34 181.52 218.27 182.16 218.24 182.78C218.17 183.78 218.11 184.86 218.07 185.91C218.03 186.96 218 188 218 189.07V189.32C218 190.26 218 191.21 218 192.17C218 193.49 218 194.81 218.06 196.06C218.044 196.307 218.044 196.554 218.06 196.8C218.06 197.93 218.06 199.09 218.19 200.44C218.19 200.6 218.19 200.77 218.19 201.05C218.26 202.25 218.34 203.44 218.42 204.6C218.5 205.76 218.6 206.78 218.71 207.72C218.71 208.46 218.83 209.2 218.92 209.86C218.92 210.37 219.02 210.86 219.08 211.37L219.24 212.83L219.6 215.52V215.88L220.02 218.62C220.3 220.39 220.62 222.24 221.02 224.43L221.21 225.34C221.34 226.01 221.49 226.68 221.63 227.34C222.01 229.12 222.43 230.92 222.88 232.71L223 233.26C223.24 234.13 223.46 234.99 223.69 235.92C224.69 239.62 225.84 243.29 227.06 246.8L227.71 248.63L227.79 248.82C227.9 249.18 228.03 249.53 228.16 249.82C228.5 250.74 228.85 251.65 229.21 252.59L229.6 253.59C229.83 254.17 230.07 254.76 230.28 255.26C230.59 256.07 230.92 256.85 231.28 257.64C232.01 259.38 232.85 261.26 233.85 263.37C234.27 264.25 234.71 265.14 235.13 265.98C235.55 266.82 235.98 267.72 236.46 268.65C236.94 269.58 237.58 270.78 238.16 271.84C238.74 272.9 239.16 273.73 239.73 274.69L240.53 276.07C241.6 277.87 242.69 279.68 243.82 281.47C244.5 282.53 245.18 283.59 245.88 284.64C246.58 285.69 247.32 286.78 248.06 287.82C248.8 288.86 249.33 289.64 249.97 290.49C250.19 290.8 250.41 291.09 250.58 291.32L250.76 291.55C251.38 292.41 252 293.25 252.64 294.03C259.556 303.027 267.377 311.291 275.98 318.69L278.77 321.06C281.18 323.06 283.08 324.51 284.86 325.85C285.27 326.17 285.69 326.49 286.14 326.85L288.01 328.21L288.3 328.41C289.39 329.18 290.51 329.95 291.61 330.71C292.55 331.34 293.47 331.95 294.43 332.56C296.94 334.19 299.43 335.73 301.84 337.11C302.97 337.76 304.11 338.4 305.37 339.11L305.59 339.22C306.59 339.77 307.59 340.3 308.5 340.75C308.66 340.84 309.17 341.12 309.19 341.12C310.3 341.68 311.44 342.25 312.57 342.8C313.7 343.35 314.85 343.87 315.95 344.38C316.275 344.548 316.609 344.698 316.95 344.83L318.72 345.62L319.96 346.17L320.14 346.23C321.31 346.72 322.53 347.23 323.72 347.69L326.58 348.81C328.74 349.61 330.63 350.27 332.37 350.81L333.55 351.19C334.14 351.38 334.72 351.57 335.29 351.74C340.547 353.393 345.888 354.769 351.29 355.86C352.29 356.08 353.35 356.27 354.41 356.47L355.41 356.66C356.62 356.88 357.82 357.07 359.02 357.27L360.02 357.41C361.11 357.59 362.21 357.73 363.34 357.88C363.49 357.88 363.66 357.88 363.97 357.95C365.27 358.13 366.58 358.27 367.87 358.4C369.16 358.53 370.54 358.66 371.87 358.76C372.96 358.85 374.05 358.91 375.14 358.98C375.85 359.03 376.56 359.07 377.24 359.08C378.36 359.14 379.49 359.18 380.58 359.2C381.99 359.26 383.4 359.27 384.83 359.27H384.96C386.4 359.27 387.82 359.27 389.19 359.2C390.32 359.2 391.44 359.14 392.48 359.08C393.24 359.08 393.96 359.08 394.66 358.98C395.76 358.91 396.85 358.85 397.92 358.76C399.29 358.66 400.62 358.53 401.92 358.4C403.22 358.27 404.44 358.14 405.71 357.97L406.37 357.88C407.51 357.75 408.64 357.59 409.84 357.41C410.13 357.36 410.39 357.31 410.84 357.27L411.24 357.2L414.46 356.66L415.32 356.49C416.39 356.28 417.48 356.08 418.54 355.86C419.6 355.64 420.91 355.37 422.2 355.08L422.61 354.98C425.28 354.35 427.96 353.67 430.61 352.92C431.93 352.54 433.24 352.15 434.53 351.75C435.44 351.46 436.36 351.17 437.32 350.85H437.46C440.29 349.92 443.12 348.85 446.1 347.7C446.94 347.38 447.77 347.03 448.58 346.7L449.74 346.22L450.1 346.06L452.92 344.84C454.467 344.174 456.003 343.454 457.53 342.68C458.62 342.16 459.73 341.61 460.7 341.1L461.02 340.95L464.3 339.21L464.91 338.89L468 337.14C470.41 335.76 472.85 334.28 475.44 332.59C476.44 331.98 477.33 331.37 478.24 330.74C479.36 329.98 480.45 329.23 481.57 328.44L482.18 328.01L483.18 327.24L483.65 326.9C484.08 326.58 484.52 326.27 484.92 325.95C487.81 323.78 490.77 321.4 493.76 318.83L493.95 318.66C502.492 311.298 510.262 303.086 517.14 294.15C517.87 293.23 518.56 292.32 519.23 291.41L519.48 291.07C519.61 290.88 519.76 290.69 519.81 290.61C520.49 289.71 521.15 288.79 521.74 287.89L522.28 287.14C522.83 286.34 523.4 285.53 523.93 284.71C524.63 283.66 525.31 282.6 525.98 281.55C526.55 280.69 527.05 279.87 527.59 278.98L528.2 277.98C528.48 277.5 528.77 276.98 529.07 276.52C530.13 274.75 531.07 273 531.98 271.35C532.89 269.7 533.82 267.87 534.66 266.14C535.11 265.24 535.55 264.35 535.95 263.47C536.79 261.71 537.61 259.91 538.38 258.13C539.51 255.56 540.61 252.8 541.66 249.9C541.96 249.01 542.28 248.13 542.66 247.11C542.93 246.33 543.19 245.53 543.41 244.83C543.731 244.011 544.001 243.173 544.22 242.32C545.22 239.23 546.17 235.91 547.01 232.45C547.42 230.78 547.82 229.12 548.17 227.45C548.37 226.45 548.58 225.5 548.77 224.54C549.19 222.44 549.52 220.54 549.77 218.75L550.22 215.81V215.71C550.35 214.78 550.48 213.85 550.61 212.71C550.73 211.79 550.83 210.86 550.92 209.99C550.99 209.34 551.05 208.71 551.11 208.08V207.93C551.24 206.84 551.32 205.75 551.38 204.74C551.5 203.55 551.57 202.34 551.64 201.11V200.38C551.7 199.21 551.74 198.06 551.74 197.02C551.755 196.744 551.755 196.467 551.74 196.19C551.74 194.9 551.8 193.58 551.8 192.26C551.8 191.33 551.8 190.4 551.8 189.46V189.15C551.8 188.15 551.8 187.25 551.73 186.29V186.03C551.73 185.12 551.65 184.22 551.59 183.19V183C551.59 182.82 551.59 182.65 551.59 182.49C551.59 181.76 551.52 181.04 551.45 180.37C551.45 180.24 551.45 180.09 551.45 179.91C551.462 179.764 551.462 179.617 551.45 179.47C551.37 178.37 551.28 177.28 551.16 176.26C551.04 175.24 550.97 174.26 550.87 173.37C550.86 173.034 550.817 172.698 550.74 172.37C550.63 171.25 550.48 170.14 550.32 169.05C550.2 168.13 550.06 167.22 549.91 166.33L549.51 163.62L533.79 163.71H469.98H449.57L503.57 110.39L504.18 109.7ZM369.59 162.79L361.78 170.63C361.78 165.16 361.78 158.92 361.78 152.11V125V88.0704V58.8004C361.78 54.2204 361.78 49.5904 361.78 44.9804L363.78 44.6704L365.51 44.4604C366.03 44.3804 366.51 44.3104 367.12 44.2504C369.25 43.9904 371.3 43.7904 373.36 43.6304L375.8 43.4604H376.06L378.71 43.3304H378.97C379.53 43.3304 380.08 43.3304 380.64 43.2804H381.18C381.53 43.2804 381.89 43.2804 382.28 43.2804C383.15 43.2804 384.05 43.2804 384.92 43.2804H387.6H388.79H389.31L390.98 43.3404C391.92 43.3404 392.85 43.4104 393.92 43.4704L396.46 43.6604C398.51 43.8204 400.61 44.0204 402.73 44.2804L404.62 44.5204L406.04 44.7004C406.68 44.7904 407.32 44.8904 407.97 45.0104L409.97 45.3304C414.44 46.0804 418.97 47.0604 423.38 48.2504C429.78 49.9494 436.058 52.081 442.17 54.6304L460 72.3204L460.83 73.1404L369.59 162.79ZM399.59 212.91L419.95 192.85L399.61 212.94L399.59 212.91ZM383.45 203.41L304.77 280.93V282.13C304.77 283.38 304.72 284.73 304.71 286.13V286.38C304.64 291.3 304.61 296.47 304.64 300.21V307.28L355.64 256.45L355.72 256.37L386.37 225.88L414.01 256.19C426.52 270.72 440.88 286.37 458.01 304.13C458.245 304.332 458.46 304.556 458.65 304.8L458.87 305C459.033 305.151 459.186 305.311 459.33 305.48L463.33 309.59L465.42 308.03C468.835 305.465 471.966 302.541 474.76 299.31L476.55 297.31L473.76 294.43C470.673 291.21 467.65 288.044 464.69 284.93C450.11 269.41 437.77 255.32 429.76 246.06C425.87 241.56 405.68 219.59 399.56 212.96L420.02 192.77L422.69 190.34L425.19 188.08L425.68 187.63L431.68 182.13L533.59 182.25C533.66 183.48 533.74 184.7 533.8 185.92C533.88 187.8 533.91 189.81 533.91 192.22C533.91 193.35 533.91 194.48 533.91 195.63V196.12C533.91 196.66 533.91 197.21 533.85 197.79C533.79 198.37 533.85 199.08 533.77 199.79C533.69 200.5 533.68 201.41 533.61 202.3C533.54 203.19 533.51 203.94 533.42 204.87C533.27 206.52 533.13 208.23 532.88 210C532.81 210.8 532.72 211.59 532.61 212.31C532.53 212.73 532.48 213.17 532.4 213.73C532.26 214.73 532.1 215.81 531.91 216.85C531.72 218.06 531.5 219.24 531.29 220.41L531.11 221.28C531.04 221.56 530.98 221.83 530.94 222.09C530.76 222.98 530.56 223.88 530.37 224.78C530.18 225.68 529.98 226.55 529.75 227.45V227.62C529.52 228.57 529.29 229.52 529.01 230.5C528.73 231.48 528.55 232.25 528.29 233.14C528.14 233.63 527.52 235.78 527.52 235.78C526.85 237.99 526.13 240.18 525.37 242.3C523.445 247.659 521.212 252.901 518.68 258C518.17 259 517.68 260 517.08 261.16L516.95 261.39C516.66 261.95 516.37 262.51 516.02 263.12C515.21 264.64 514.34 266.2 513.41 267.72L512.95 268.49C512.64 269.01 512.34 269.49 511.95 270.07C509.61 273.92 507.03 277.74 504.26 281.41C502.18 284.15 499.93 286.92 497.6 289.64L497.48 289.8C495.1 292.51 492.68 295.11 490.28 297.49L489.18 298.59L489 298.75C487 300.68 485 302.52 483.1 304.21L482.94 304.06L480.94 305.7C477.88 308.2 474.67 310.7 471.39 313.09L468.72 315.09L468.88 315.28C468.44 315.57 468.01 315.87 467.59 316.16C465.99 317.22 464.31 318.3 462.51 319.37L462.25 319.56C444.676 330.181 425.121 337.105 404.78 339.91L400.7 340.39L397.93 340.66H397.82C397.82 340.66 397.3 340.72 397.06 340.73C396.45 340.79 395.85 340.83 395.14 340.86L394.07 340.94C393.24 340.99 392.4 341.04 391.58 341.07H391.21C390.61 341.07 390.06 341.07 389.38 341.12C389.04 341.12 388.7 341.12 388.38 341.12H387.75C386.84 341.12 385.95 341.12 385.02 341.12H382.15C381.67 341.12 381.15 341.12 380.6 341.12C380.05 341.12 379.39 341.12 378.6 341.07L375.88 340.91L374.8 340.83C374.13 340.83 373.48 340.75 372.8 340.67H372.22C371.3 340.59 370.37 340.49 369.32 340.38L367.1 340.13C345.577 337.447 324.886 330.151 306.44 318.74C305.09 317.89 303.75 317.04 302.44 316.15L301.71 315.67L300.63 314.93L299 313.8C296.63 312.12 294.37 310.4 292.22 308.69C290.78 307.56 289.52 306.51 288.35 305.5C285.44 303.06 282.6 300.43 279.65 297.5C274.609 292.482 269.931 287.112 265.65 281.43C250.447 261.197 240.69 237.402 237.31 212.32L237.19 211.54C237.12 211.01 237.05 210.54 236.99 209.9C236.76 208 236.6 206.34 236.47 204.63C236.362 203.825 236.298 203.013 236.28 202.2C236.22 201.45 236.18 200.67 236.13 199.72L236.05 197.66C236 196.99 235.99 196.34 235.97 195.57C235.97 194.44 235.97 193.31 235.97 192.18C235.97 189.35 236.06 186.31 236.24 183.18C236.33 181.72 236.45 180.25 236.59 178.77L236.65 178.08C236.65 177.51 236.75 176.93 236.81 176.38C236.93 175.56 237.01 174.78 237.1 173.98L237.45 171.36L237.64 170.11C237.75 169.29 237.88 168.5 238.03 167.7V167.45C244.134 131.574 263.117 99.157 291.42 76.2804C293.56 74.5804 295.65 72.9904 297.65 71.5204V261.52L360.65 197.37L361.46 196.55L361.69 196.33L386.45 171.5L396.16 161.8L441.53 116.35L448.28 109.56H448.35L448.9 108.95L449.43 108.42L457.94 99.8004L481.18 76.3804L470.61 63.4504L482.3 56.7004L532.49 27.7004V27.7904V27.6904L532.62 27.6204L532.44 27.7904L516.44 103.65L499.36 89.0004L383.45 203.41Z" fill="#231F20" stroke="url(#paint17_radial_257_850)" stroke-miterlimit="10"/>
<defs>
<radialGradient id="paint0_radial_257_850" cx="0" cy="0" r="1" gradientUnits="userSpaceOnUse" gradientTransform="translate(39.7802 438.68) scale(40.24 40.24)">
<stop stop-color="#B98934"/>
<stop offset="0.5" stop-color="#F6E07B"/>
<stop offset="0.7" stop-color="#DCBC5D"/>
<stop offset="1" stop-color="#B2822D"/>
</radialGradient>
<radialGradient id="paint1_radial_257_850" cx="0" cy="0" r="1" gradientUnits="userSpaceOnUse" gradientTransform="translate(136.52 438.75) scale(38.15 38.15)">
<stop stop-color="#B98934"/>
<stop offset="0.5" stop-color="#F6E07B"/>
<stop offset="0.7" stop-color="#DCBC5D"/>
<stop offset="1" stop-color="#B2822D"/>
</radialGradient>
<radialGradient id="paint2_radial_257_850" cx="0" cy="0" r="1" gradientUnits="userSpaceOnUse" gradientTransform="translate(241.41 438.75) scale(37.91 37.91)">
<stop stop-color="#B98934"/>
<stop offset="0.5" stop-color="#F6E07B"/>
<stop offset="0.7" stop-color="#DCBC5D"/>
<stop offset="1" stop-color="#B2822D"/>
</radialGradient>
<radialGradient id="paint3_radial_257_850" cx="0" cy="0" r="1" gradientUnits="userSpaceOnUse" gradientTransform="translate(323.12 438.75) scale(40.46 40.46)">
<stop stop-color="#B98934"/>
<stop offset="0.5" stop-color="#F6E07B"/>
<stop offset="0.7" stop-color="#DCBC5D"/>
<stop offset="1" stop-color="#B2822D"/>
</radialGradient>
<radialGradient id="paint4_radial_257_850" cx="0" cy="0" r="1" gradientUnits="userSpaceOnUse" gradientTransform="translate(404.32 438.75) scale(43.65 43.65)">
<stop stop-color="#B98934"/>
<stop offset="0.5" stop-color="#F6E07B"/>
<stop offset="0.7" stop-color="#DCBC5D"/>
<stop offset="1" stop-color="#B2822D"/>
</radialGradient>
<radialGradient id="paint5_radial_257_850" cx="0" cy="0" r="1" gradientUnits="userSpaceOnUse" gradientTransform="translate(505.25 438.75) scale(37.05 37.05)">
<stop stop-color="#B98934"/>
<stop offset="0.5" stop-color="#F6E07B"/>
<stop offset="0.7" stop-color="#DCBC5D"/>
<stop offset="1" stop-color="#B2822D"/>
</radialGradient>
<radialGradient id="paint6_radial_257_850" cx="0" cy="0" r="1" gradientUnits="userSpaceOnUse" gradientTransform="translate(569.03 438.54) scale(29.67 29.67)">
<stop stop-color="#B98934"/>
<stop offset="0.5" stop-color="#F6E07B"/>
<stop offset="0.7" stop-color="#DCBC5D"/>
<stop offset="1" stop-color="#B2822D"/>
</radialGradient>
<radialGradient id="paint7_radial_257_850" cx="0" cy="0" r="1" gradientUnits="userSpaceOnUse" gradientTransform="translate(635.19 438.75) scale(43.24 43.24)">
<stop stop-color="#B98934"/>
<stop offset="0.5" stop-color="#F6E07B"/>
<stop offset="0.7" stop-color="#DCBC5D"/>
<stop offset="1" stop-color="#B2822D"/>
</radialGradient>
<radialGradient id="paint8_radial_257_850" cx="0" cy="0" r="1" gradientUnits="userSpaceOnUse" gradientTransform="translate(723.76 438.75) scale(43.65 43.65)">
<stop stop-color="#B98934"/>
<stop offset="0.5" stop-color="#F6E07B"/>
<stop offset="0.7" stop-color="#DCBC5D"/>
<stop offset="1" stop-color="#B2822D"/>
</radialGradient>
<radialGradient id="paint9_radial_257_850" cx="0" cy="0" r="1" gradientUnits="userSpaceOnUse" gradientTransform="translate(240.25 563.569) scale(26.42 26.42)">
<stop stop-color="#B98934"/>
<stop offset="0.5" stop-color="#F6E07B"/>
<stop offset="0.7" stop-color="#DCBC5D"/>
<stop offset="1" stop-color="#B2822D"/>
</radialGradient>
<radialGradient id="paint10_radial_257_850" cx="0" cy="0" r="1" gradientUnits="userSpaceOnUse" gradientTransform="translate(316.4 563.46) scale(25.42 25.42)">
<stop stop-color="#B98934"/>
<stop offset="0.5" stop-color="#F6E07B"/>
<stop offset="0.7" stop-color="#DCBC5D"/>
<stop offset="1" stop-color="#B2822D"/>
</radialGradient>
<radialGradient id="paint11_radial_257_850" cx="0" cy="0" r="1" gradientUnits="userSpaceOnUse" gradientTransform="translate(386.91 563.569) scale(27.15 27.15)">
<stop stop-color="#B98934"/>
<stop offset="0.5" stop-color="#F6E07B"/>
<stop offset="0.7" stop-color="#DCBC5D"/>
<stop offset="1" stop-color="#B2822D"/>
</radialGradient>
<radialGradient id="paint12_radial_257_850" cx="0" cy="0" r="1" gradientUnits="userSpaceOnUse" gradientTransform="translate(459.28 564.081) scale(24.5 24.5)">
<stop stop-color="#B98934"/>
<stop offset="0.5" stop-color="#F6E07B"/>
<stop offset="0.7" stop-color="#DCBC5D"/>
<stop offset="1" stop-color="#B2822D"/>
</radialGradient>
<radialGradient id="paint13_radial_257_850" cx="0" cy="0" r="1" gradientUnits="userSpaceOnUse" gradientTransform="translate(531.82 563.461) scale(24.84 24.84)">
<stop stop-color="#B98934"/>
<stop offset="0.5" stop-color="#F6E07B"/>
<stop offset="0.7" stop-color="#DCBC5D"/>
<stop offset="1" stop-color="#B2822D"/>
</radialGradient>
<radialGradient id="paint14_radial_257_850" cx="0" cy="0" r="1" gradientUnits="userSpaceOnUse" gradientTransform="translate(385 509.949) scale(11.33 11.33)">
<stop stop-color="#B98934"/>
<stop offset="0.5" stop-color="#F6E07B"/>
<stop offset="0.7" stop-color="#DCBC5D"/>
<stop offset="1" stop-color="#B2822D"/>
</radialGradient>
<radialGradient id="paint15_radial_257_850" cx="0" cy="0" r="1" gradientUnits="userSpaceOnUse" gradientTransform="translate(566.31 509.961) scale(111.33 111.33)">
<stop stop-color="#B98934"/>
<stop offset="0.5" stop-color="#F6E07B"/>
<stop offset="0.7" stop-color="#DCBC5D"/>
<stop offset="1" stop-color="#B2822D"/>
</radialGradient>
<radialGradient id="paint16_radial_257_850" cx="0" cy="0" r="1" gradientUnits="userSpaceOnUse" gradientTransform="translate(203.69 509.961) scale(111.33 111.33)">
<stop stop-color="#B98934"/>
<stop offset="0.5" stop-color="#F6E07B"/>
<stop offset="0.7" stop-color="#DCBC5D"/>
<stop offset="1" stop-color="#B2822D"/>
</radialGradient>
<radialGradient id="paint17_radial_257_850" cx="0" cy="0" r="1" gradientUnits="userSpaceOnUse" gradientTransform="translate(386.76 180.25) scale(174.45 174.45)">
<stop stop-color="#B98934"/>
<stop offset="0.5" stop-color="#F6E07B"/>
<stop offset="0.7" stop-color="#DCBC5D"/>
<stop offset="1" stop-color="#B2822D"/>
</radialGradient>
</defs>
</svg>
