<svg width="17" height="16" viewBox="0 0 17 16" fill="none" xmlns="http://www.w3.org/2000/svg">
<path d="M4.15527 12.8301V14.5328" stroke="#2C2C2C" stroke-width="1.27632" stroke-linecap="round" stroke-linejoin="round"/>
<path d="M11.8085 12.8301V14.5328" stroke="#2C2C2C" stroke-width="1.27632" stroke-linecap="round" stroke-linejoin="round"/>
<path d="M3.30493 6.86882V2.56464C3.30493 2.12558 3.43932 1.70451 3.67854 1.39405C3.91775 1.08359 4.2422 0.90918 4.5805 0.90918C4.9188 0.90918 5.24325 1.08359 5.48246 1.39405C5.72168 1.70451 5.85607 2.12558 5.85607 2.56464" stroke="#2C2C2C" stroke-width="1.27632" stroke-linecap="round" stroke-linejoin="round"/>
<path d="M12.232 6.01367H10.5343C9.82896 6.01367 9.2572 6.58543 9.2572 7.29074C9.2572 7.99604 9.82896 8.5678 10.5343 8.5678H12.232C12.9373 8.5678 13.5091 7.99604 13.5091 7.29074C13.5091 6.58543 12.9373 6.01367 12.232 6.01367Z" stroke="#2C2C2C" stroke-width="1.27632" stroke-linecap="round" stroke-linejoin="round"/>
<path d="M13.3271 6.86523H15.5138C15.6588 6.86523 15.7978 6.92232 15.9004 7.02392C16.0029 7.12552 16.0605 7.26333 16.0605 7.40702V9.57416C16.0605 10.4363 15.7149 11.2631 15.0998 11.8728C14.4846 12.4824 13.6504 12.8249 12.7804 12.8249H4.03369C3.16377 12.8249 2.32949 12.4824 1.71436 11.8728C1.09924 11.2631 0.753662 10.4363 0.753662 9.57416V7.40702C0.753662 7.26333 0.811258 7.12552 0.913779 7.02392C1.0163 6.92232 1.15535 6.86523 1.30033 6.86523H8.95374" stroke="#2C2C2C" stroke-width="1.27632" stroke-linecap="round" stroke-linejoin="round"/>
</svg>
