<svg width="18" height="14" viewBox="0 0 18 14" fill="none" xmlns="http://www.w3.org/2000/svg">
<path d="M1.01929 5.72656H16.893" stroke="#2C2C2C" stroke-width="1.27632" stroke-linecap="round" stroke-linejoin="round"/>
<path d="M15.9008 10.6973V12.1872C15.9008 12.3189 15.838 12.4452 15.7264 12.5384C15.6148 12.6315 15.4634 12.6838 15.3055 12.6838H13.5197C13.3618 12.6838 13.2104 12.6315 13.0988 12.5384C12.9872 12.4452 12.9244 12.3189 12.9244 12.1872V10.6973" stroke="#2C2C2C" stroke-width="1.27632" stroke-linecap="round" stroke-linejoin="round"/>
<path d="M4.9878 10.6973V12.1872C4.9878 12.3189 4.92508 12.4452 4.81345 12.5384C4.70182 12.6315 4.55041 12.6838 4.39253 12.6838H2.60674C2.44887 12.6838 2.29746 12.6315 2.18582 12.5384C2.07419 12.4452 2.01147 12.3189 2.01147 12.1872V10.6973" stroke="#2C2C2C" stroke-width="1.27632" stroke-linecap="round" stroke-linejoin="round"/>
<path d="M3.99573 7.71973H5.97994" stroke="#2C2C2C" stroke-width="1.27632" stroke-linecap="round" stroke-linejoin="round"/>
<path d="M11.9324 7.71973H13.9166" stroke="#2C2C2C" stroke-width="1.27632" stroke-linecap="round" stroke-linejoin="round"/>
<path d="M15.901 6.8343C15.901 6.29811 15.7893 5.76781 15.5731 5.27716L13.738 1.11326C13.6931 1.00943 13.6193 0.921013 13.5255 0.858772C13.4318 0.796531 13.3221 0.763151 13.2099 0.762695H4.70257C4.59036 0.763151 4.4807 0.796531 4.38694 0.858772C4.29318 0.921013 4.21936 1.00943 4.17448 1.11326L2.33939 5.27716C2.12315 5.76781 2.01147 6.29811 2.01147 6.8343V6.8343C2.01147 8.96674 3.74016 10.6954 5.8726 10.6954H12.0399C14.1723 10.6954 15.901 8.96674 15.901 6.8343V6.8343Z" stroke="#2C2C2C" stroke-width="1.27632" stroke-linecap="round" stroke-linejoin="round"/>
</svg>
